<?xml version="1.0" encoding="UTF-8"?>
<svg version="1.1" xmlns="http://www.w3.org/2000/svg" width="1024" height="1024">
<path d="M0 0 C337.92 0 675.84 0 1024 0 C1024 337.92 1024 675.84 1024 1024 C686.08 1024 348.16 1024 0 1024 C0 686.08 0 348.16 0 0 Z " fill="#012130" transform="translate(0,0)"/>
<path d="M0 0 C3.20420733 3.00394437 5.82229255 6.09306392 8.4375 9.625 C17.54309099 21.07932287 32.09012671 31.36337557 46 36 C45.7834375 35.12214844 45.7834375 35.12214844 45.5625 34.2265625 C43.60053911 25.1524934 43.81726391 16.22817275 44 7 C46.22815341 9.84845423 48.06312061 12.7508424 49.8125 15.9140625 C50.33070313 16.83960938 50.84890625 17.76515625 51.3828125 18.71875 C52.46425853 20.66221822 53.5423663 22.60754764 54.6171875 24.5546875 C55.13539063 25.47765625 55.65359375 26.400625 56.1875 27.3515625 C56.65542969 28.19541504 57.12335938 29.03926758 57.60546875 29.90869141 C58.98481073 32.26757976 58.98481073 32.26757976 62 34 C62.763125 32.989375 63.52625 31.97875 64.3125 30.9375 C69.91701305 24.40112017 76.55806199 20.40698967 85 19 C82.525 25.435 82.525 25.435 80 32 C81.753125 31.34 83.50625 30.68 85.3125 30 C93.12700454 27.55904549 106.42592119 25.21296059 114 29 C114.06184479 30.14770874 114.06184479 30.14770874 114.12493896 31.31860352 C114.65927287 41.21281094 115.20228521 51.10652503 115.75 61 C115.79408493 61.79770435 115.83816986 62.59540871 115.8835907 63.41728592 C117.26544798 88.3922732 118.84334511 113.34032885 120.78027344 138.27929688 C121.64188593 149.55060138 122.26386821 160.69240944 122 172 C117.97066275 174.57877584 116.48465565 174 111 174 C110.34 161.46 109.68 148.92 109 136 C108.67 147.88 108.34 159.76 108 172 C100.575 172.99 100.575 172.99 93 174 C85.10996588 177.04842227 78.88546197 181.22907606 75 189 C74.5085926 194.83244197 74.16924322 200.17872553 76.625 205.5625 C82.17280127 211.25629604 86.86686909 213.12717999 94.625 213.25 C104.69682213 213.11570904 111.49656694 210.08829285 119.75 204.42578125 C122 203 122 203 124 203 C124.23783203 204.83498047 124.23783203 204.83498047 124.48046875 206.70703125 C128.18954529 234.02454407 135.44908647 262.19189057 156 282 C140.26484167 276.1169086 126.2510125 263.18185773 119.09375 248.0625 C116.24723177 241.80591771 113.76803728 235.64954507 112 229 C113.29251992 242.92756163 118.70701717 255.55689554 128 266 C129.2065625 267.5159375 129.2065625 267.5159375 130.4375 269.0625 C130.953125 269.701875 131.46875 270.34125 132 271 C117.01881256 267.20042348 107.485212 256.9923632 99.796875 244.18359375 C98.09359159 241.16581988 96.51753596 238.11469571 95 235 C103.78903135 259.03887382 118.16307071 276.60153815 141.56738281 287.81030273 C152.72132314 292.87297424 164.63045089 295.67605672 176.48046875 298.61523438 C196.94027234 303.70482188 213.41445443 312.44208473 228 328 C227.67 328.66 227.34 329.32 227 330 C225.87464844 329.66226562 224.74929688 329.32453125 223.58984375 328.9765625 C212.04503112 325.5884798 200.80591196 323.48117823 188.796875 322.6171875 C163.36161857 320.75225829 136.99930188 316.56785147 116 301 C115.16597656 300.41992188 114.33195312 299.83984375 113.47265625 299.2421875 C98.17118667 287.97238402 89.81514246 271.00444573 85 253 C88.9794241 278.85008011 96.78323332 300.11477018 113 321 C105.54279101 319.10867888 100.07202647 315.64270065 94 311 C92.4840625 309.9171875 92.4840625 309.9171875 90.9375 308.8125 C81.55280531 300.6174145 76.06127642 289.12159762 71 278 C70.46503906 276.86433594 69.93007813 275.72867187 69.37890625 274.55859375 C65.93381313 266.69304349 63.77500509 258.71778644 61.8125 250.375 C61.57450684 249.36969238 61.33651367 248.36438477 61.09130859 247.32861328 C58.77941094 236.98420786 57.41202809 226.49716792 56 216 C55.98786972 217.10848549 55.98786972 217.10848549 55.97549438 218.23936462 C55.89679868 225.28323788 55.80929897 232.326938 55.71247292 239.37058163 C55.66301679 242.98977445 55.61669337 246.60894496 55.578125 250.22827148 C55.16467743 288.50596772 55.16467743 288.50596772 52 298 C51.34 298 50.68 298 50 298 C39.58806604 276.85441502 36.39457464 256.35074194 35 233 C34.94986774 237.60406987 34.9139413 242.20797445 34.89013672 246.81225586 C34.88019372 248.37250543 34.86663453 249.93273696 34.84912109 251.49291992 C34.58466896 275.69029057 38.66789385 296.7041191 55.8515625 314.85546875 C61.16976897 320.16400576 66.46575543 324.04807901 73.05859375 327.703125 C73.69925781 328.13109375 74.33992187 328.5590625 75 329 C75 329.66 75 330.32 75 331 C52.83727431 331.39484094 31.57517955 331.60105641 14 316 C7.61410677 309.52677832 4.00275835 302.51945393 1 294 C0.47019531 292.55367187 0.47019531 292.55367187 -0.0703125 291.078125 C-1.84575612 285.19976547 -2.1238312 279.43190024 -2.11352539 273.32055664 C-2.11367142 272.58801666 -2.11381744 271.85547668 -2.1139679 271.10073853 C-2.11327686 268.70384657 -2.10552276 266.30703446 -2.09765625 263.91015625 C-2.09578919 262.23864281 -2.09436665 260.56712881 -2.09336853 258.89561462 C-2.08956603 254.51445991 -2.07975529 250.13333879 -2.06866455 245.75219727 C-2.0584015 241.27425592 -2.05386046 236.79630911 -2.04882812 232.31835938 C-2.03813083 223.54555757 -2.02108187 214.77278297 -2 206 C-2.0717318 206.9859742 -2.0717318 206.9859742 -2.14491272 207.99186707 C-3.91945116 231.92281157 -3.91945116 231.92281157 -6.4375 243.3125 C-6.64181641 244.30443359 -6.84613281 245.29636719 -7.05664062 246.31835938 C-12.18518073 270.71487257 -19.8663118 294.29551152 -38 312 C-38.96679688 312.99773437 -38.96679688 312.99773437 -39.953125 314.015625 C-45.02478274 318.91087725 -55.713274 327 -63 327 C-62.731875 326.35417969 -62.46375 325.70835937 -62.1875 325.04296875 C-58.25902415 314.97624938 -54.72333444 304.68467352 -53 294 C-53.825 294.70125 -54.65 295.4025 -55.5 296.125 C-79.058332 315.66994631 -106.23899753 320.662928 -136.00927734 323.07861328 C-145.79791867 323.88653431 -154.8348418 325.11736111 -164.12780762 328.41769409 C-165.73704679 328.98876463 -167.36723263 329.50015704 -169 330 C-169.66 329.67 -170.32 329.34 -171 329 C-153.49852497 310.49685072 -134.7860375 303.03454923 -110.56347656 296.40966797 C-85.59044458 289.55367643 -65.97371028 279.84111386 -52 257 C-51.45730469 256.113125 -50.91460937 255.22625 -50.35546875 254.3125 C-38.19710733 232.24138482 -34.62720753 204.83741836 -34 180 C-34.05945801 180.63687744 -34.11891602 181.27375488 -34.18017578 181.92993164 C-37.21289773 213.15914851 -43.81154029 245.84449522 -68.71484375 267.34375 C-76.80809626 273.68799089 -87.53754479 281.57059436 -98 283 C-97.47212891 282.32517578 -97.47212891 282.32517578 -96.93359375 281.63671875 C-86.38930353 267.8988576 -79.01515348 253.55850673 -74 237 C-73.47599609 235.36417969 -73.47599609 235.36417969 -72.94140625 233.6953125 C-62.1580371 197.35913474 -62.99352935 156.68109007 -60.74276733 119.08135986 C-59.68138523 101.35729136 -58.51023086 83.65485279 -56.93798828 65.96777344 C-56.19561409 57.58196458 -55.59654336 49.211377 -55.2902832 40.79760742 C-55.13914383 36.79311153 -54.92043895 32.9088771 -54 29 C-48.09851394 26.04925697 -40.84232077 27.84794818 -34.8659668 29.79052734 C-31.89311542 30.81764732 -28.94232657 31.88818969 -26 33 C-26.2165625 31.75863281 -26.433125 30.51726562 -26.65625 29.23828125 C-26.93771684 27.59639133 -27.21895482 25.95446215 -27.5 24.3125 C-27.64308594 23.49587891 -27.78617188 22.67925781 -27.93359375 21.83789062 C-28.61165962 17.85021752 -29.19858392 14.06269596 -29 10 C-19.23133443 13.51741612 -11.3064783 21.29757283 -3.59594727 28.05029297 C-0.50517746 30.82011539 -0.50517746 30.82011539 3 33 C2.688288 30.47906702 2.37565098 27.9582543 2.0625 25.4375 C1.97548828 24.73302734 1.88847656 24.02855469 1.79882812 23.30273438 C1.38343539 19.96420757 0.94491447 16.63888372 0.4375 13.3125 C0.04512453 10.34165718 -0.10347523 7.55369209 -0.0625 4.5625 C-0.05347656 3.69753906 -0.04445313 2.83257812 -0.03515625 1.94140625 C-0.01775391 0.98041016 -0.01775391 0.98041016 0 0 Z " fill="#C27829" transform="translate(483,317)"/>
<path d="M0 0 C0.02920143 4.18748519 0.04686646 8.37494391 0.0625 12.5625 C0.07087891 13.74392578 0.07925781 14.92535156 0.08789062 16.14257812 C0.10392999 21.86863072 0.0510705 27.36394482 -1 33 C-0.40574219 32.40832031 0.18851563 31.81664062 0.80078125 31.20703125 C6.95546789 25.3394995 13.91998637 19.26069215 22.82421875 18.87890625 C23.54222656 18.91886719 24.26023437 18.95882812 25 19 C29.63503168 31.37869907 26.45548602 42.2406994 22 54 C22 54.33 22 54.66 22 55 C22.67482422 54.25556641 22.67482422 54.25556641 23.36328125 53.49609375 C32.93909168 43.3829633 46.50686299 34.67024226 60.73046875 33.76171875 C73.91679801 33.43668259 85.53264062 35.70224568 98 40 C96.89187926 43.32436221 96.14463373 43.92685332 93.5 46.0625 C86.72723585 51.81204079 80.61135715 58.38123602 76 66 C76.79921875 65.66226563 77.5984375 65.32453125 78.421875 64.9765625 C96.9272411 57.46147251 114.21766593 57.08327596 132.6875 64.8125 C134.13564048 65.520299 135.57260562 66.251244 137 67 C137.92039062 67.45761719 138.84078125 67.91523438 139.7890625 68.38671875 C152.59032056 75.2173642 161.79436592 85.51729861 169 98 C169 98.33 169 98.66 169 99 C167.76507812 99.02578125 166.53015625 99.0515625 165.2578125 99.078125 C145.4554964 99.54088648 145.4554964 99.54088648 127 106 C128.09957031 106.36351562 129.19914062 106.72703125 130.33203125 107.1015625 C148.40851931 113.19126127 162.84623083 121.10370169 173 138 C173.69029297 139.13308594 173.69029297 139.13308594 174.39453125 140.2890625 C181.70136081 153.48992074 182.61405231 167.26274446 182 182 C181.31035156 181.61328125 180.62070312 181.2265625 179.91015625 180.828125 C176.95473366 179.19027764 173.98115612 177.59047226 171 176 C170.31808594 175.62101563 169.63617187 175.24203125 168.93359375 174.8515625 C152.00909785 166.3038373 132.36921736 167.50605062 114 168 C114.96679688 168.36351562 115.93359375 168.72703125 116.9296875 169.1015625 C134.04404845 175.65688937 146.31430809 183.38300726 155 200 C156.46268187 203.86766842 157.24354869 206.85967235 157 211 C152.47332989 209.57052523 148.12645081 207.84549737 143.7578125 206 C136.50924551 203.37162443 129.30456113 202.48405769 121.6875 201.625 C106.87675971 199.78370249 94.86430672 195.86430672 84 185 C91.59 185 99.18 185 107 185 C98.748733 174.68591624 86.9455228 169.73754901 74 168 C70.87746947 167.75440375 67.75332031 167.58967507 64.625 167.4375 C63.79355469 167.39431641 62.96210937 167.35113281 62.10546875 167.30664062 C60.07046772 167.20138195 58.03525297 167.10026928 56 167 C56.54269531 166.07058594 57.08539062 165.14117187 57.64453125 164.18359375 C58.36739282 162.93501468 59.09003747 161.68631001 59.8125 160.4375 C60.16892578 159.82841797 60.52535156 159.21933594 60.89257812 158.59179688 C63.25481767 154.49580354 65.21357155 150.37872209 67 146 C58.39653611 149.18824826 50.82933446 153.29170359 43.0546875 158.109375 C40 160 40 160 38 161 C42.56606396 145.91184452 50.45846396 132.41190442 60.71240234 120.49755859 C61.90879216 119.10608056 63.07490592 117.68872734 64.23828125 116.26953125 C77.85706494 100.21081922 97.33153626 88.85344239 118 85 C92.54068538 84.49585516 72.27652048 90.38073694 53 108 C40.89134798 119.76952997 30.95287021 136.17553597 25 152 C24.67 152 24.34 152 24 152 C21.81487233 122.13658854 34.02676815 94.4324286 50 70 C30.59166615 79.91981508 18.6854703 97.73755887 12 118 C9.81772413 125.28306255 7.88344739 132.6347719 6 140 C1.75845875 136.29216262 0.13309052 133.43859323 -1.25 128 C-1.56453125 126.80375 -1.8790625 125.6075 -2.203125 124.375 C-2.46609375 123.26125 -2.7290625 122.1475 -3 121 C-3.17869629 120.24952393 -3.35739258 119.49904785 -3.54150391 118.72583008 C-4.09232931 115.45108801 -4.12974606 112.33289133 -4.1328125 109.01171875 C-4.13376923 108.34968948 -4.13472595 107.68766022 -4.13571167 107.00556946 C-4.13638955 105.60958765 -4.13456273 104.21360263 -4.13037109 102.81762695 C-4.12504291 100.70451591 -4.13031615 98.5916199 -4.13671875 96.47851562 C-4.1396297 89.91228345 -4.05808283 83.49125419 -3 77 C-9.4008434 89.25434628 -13.78179412 100.27322007 -16 114 C-20.24023945 110.3781288 -22.45873667 105.92555392 -25 101.0625 C-25.42539062 100.28326172 -25.85078125 99.50402344 -26.2890625 98.70117188 C-32.25562951 87.38116668 -34.64259924 76.65545834 -34.41162109 63.95166016 C-34.37490511 61.86961929 -34.37060505 59.78936415 -34.37109375 57.70703125 C-34.32908205 49.9569052 -33.73685941 42.56503208 -32 35 C-38.09348416 41.84542562 -40.5803997 49.33509175 -43 58 C-43.24878906 58.88300781 -43.49757813 59.76601562 -43.75390625 60.67578125 C-47.73277961 78.12161058 -45.75547158 96.41293888 -36.94921875 111.90234375 C-33.99070447 116.60395061 -30.65363117 120.82345135 -27 125 C-26.26523437 125.84433594 -25.53046875 126.68867188 -24.7734375 127.55859375 C-20.03954069 132.90252881 -15.10980285 138.01550566 -10 143 C-14.07550277 144.6781482 -17.58721389 143.23382951 -21.5625 141.9375 C-22.27486816 141.70780518 -22.98723633 141.47811035 -23.72119141 141.24145508 C-41.55294971 135.26470001 -54.66978534 123.38991164 -65 108 C-65 113.61 -65 119.22 -65 125 C-73.02736826 120.98631587 -78.00102591 113.12550192 -83 105.875 C-92.7326291 91.95133992 -108.05020768 81.07607342 -125 78 C-129.02962215 77.73286775 -132.9713221 77.73868035 -137 78 C-136.10539062 78.40089844 -135.21078125 78.80179687 -134.2890625 79.21484375 C-121.71971813 85.0425123 -113.33658965 92.94254997 -105 104 C-103.35565891 106.14700146 -101.71029831 108.29315673 -100.0625 110.4375 C-99.6411377 110.98583496 -99.21977539 111.53416992 -98.78564453 112.09912109 C-89.97398102 123.54516465 -82.08270854 133.42652779 -69 140 C-68.07832031 140.46792969 -67.15664063 140.93585938 -66.20703125 141.41796875 C-63.81065801 142.6246052 -61.40872733 143.8182653 -59 145 C-62.41552252 147.27701501 -65.02605603 147.67857806 -69 148 C-69.78375 148.07734375 -70.5675 148.1546875 -71.375 148.234375 C-83.81716103 148.90091934 -94.36945514 143.80490308 -104.53515625 137.1953125 C-108.5123901 134.62490379 -112.64086792 132.36210699 -116.8125 130.125 C-117.50585449 129.74375977 -118.19920898 129.36251953 -118.91357422 128.96972656 C-127.32871301 124.49371726 -134.84153054 123.65636598 -144.3125 123.6875 C-145.28123047 123.67138672 -146.24996094 123.65527344 -147.24804688 123.63867188 C-154.24833464 123.6340019 -160.34825484 124.84894623 -167 127 C-165.36804688 127.12955078 -165.36804688 127.12955078 -163.703125 127.26171875 C-146.1534063 128.85459766 -131.98653277 135.46343444 -119.73046875 148.39453125 C-116.8658516 151.12800713 -114.01971561 153.03454044 -110.625 155.0625 C-110.05499268 155.40539062 -109.48498535 155.74828125 -108.89770508 156.1015625 C-104.96460571 158.45884524 -101.00387095 160.76528133 -97 163 C-99.74790596 164.8319373 -101.21872652 165.41275673 -104.3125 166.1875 C-116.18037294 169.66989775 -125.22140185 175.35441092 -134 184 C-128.06 184.33 -122.12 184.66 -116 185 C-125.75239213 197.19049016 -140.76186846 200.63383066 -155.625 202.5 C-168.96641387 204.20363982 -179.06555604 208.59379205 -190.1015625 216.109375 C-193 218 -193 218 -196 219 C-200.54667847 199.88764655 -199.67445823 181.62014841 -189.375 164.6875 C-183.5235396 156.41360136 -176.35656878 150.71255696 -167 147 C-182.12209142 146.56976136 -196.19861713 147.96910053 -211 151 C-206.02439816 134.13823822 -196.2527008 120.50477924 -181.1875 111.27734375 C-168.60913658 104.46963908 -155.97037173 103.51012982 -142 104 C-142 103.34 -142 102.68 -142 102 C-142.6909375 101.73703125 -143.381875 101.4740625 -144.09375 101.203125 C-147.31632486 99.86904831 -150.38040514 98.30979743 -153.5 96.75 C-159.78443026 93.72830163 -166.17557587 91.54284647 -172.875 89.625 C-173.74189453 89.37459961 -174.60878906 89.12419922 -175.50195312 88.86621094 C-181.00504743 87.35254422 -186.31375844 86.49395634 -192 86 C-179.79723294 70.90710389 -162.82204676 58.24075311 -143 56 C-129.32914648 55.15360111 -116.37366692 55.4125802 -104 62 C-106.13051951 54.51342584 -108.50693683 47.42863603 -111.94921875 40.4375 C-113.01889413 37.95617124 -113.56770839 35.66025604 -114 33 C-101.8185878 30.29301951 -90.39063106 32.6631358 -79.4296875 38.40625 C-74.04722835 41.93686629 -69.55967429 46.66048857 -66 52 C-64.60859874 47.93295729 -64.60859874 47.93295729 -63.4453125 43.796875 C-59.57813139 28.99655222 -50.29960214 17.94973476 -37.71875 9.5625 C-26.31333486 3.00766371 -13.09982282 -0.2714249 0 0 Z " fill="#357559" transform="translate(526,157)"/>
<path d="M0 0 C-2.55047482 1.96585806 -5.11171327 3.72783414 -7.8984375 5.33984375 C-8.62546875 5.76330078 -9.3525 6.18675781 -10.1015625 6.62304688 C-10.85179687 7.05681641 -11.60203125 7.49058594 -12.375 7.9375 C-18.49297836 11.46931255 -18.49297836 11.46931255 -24.4140625 15.31640625 C-27 17 -27 17 -29 17 C-29 17.66 -29 18.32 -29 19 C-28.35675781 18.87882812 -27.71351563 18.75765625 -27.05078125 18.6328125 C-24.03639195 18.07379594 -21.01828733 17.53755298 -18 17 C-17.00097656 16.80921875 -16.00195312 16.6184375 -14.97265625 16.421875 C1.97500621 13.42985389 17.77480137 13.7511111 32.71875 23.28515625 C35.83857902 25.63037018 38.49104852 28.28408156 41.11328125 31.16796875 C42.95523413 33.1154769 42.95523413 33.1154769 45.47265625 34.375 C48.64536801 36.41495069 50.09481405 38.64779837 52.125 41.8125 C52.78757812 42.82957031 53.45015625 43.84664063 54.1328125 44.89453125 C55.92023081 47.86732948 57.49620227 50.87565005 59 54 C58.01 54.495 58.01 54.495 57 55 C55.865625 54.443125 54.73125 53.88625 53.5625 53.3125 C36.57793528 45.63601169 18.21047107 46.51031932 0 47 C0.96679688 47.36351562 1.93359375 47.72703125 2.9296875 48.1015625 C20.04404845 54.65688937 32.31430809 62.38300726 41 79 C42.46268187 82.86766842 43.24354869 85.85967235 43 90 C38.47332989 88.57052523 34.12645081 86.84549737 29.7578125 85 C22.50924551 82.37162443 15.30456113 81.48405769 7.6875 80.625 C-7.12324029 78.78370249 -19.13569328 74.86430672 -30 64 C-22.41 64 -14.82 64 -7 64 C-15.251267 53.68591624 -27.0544772 48.73754901 -40 47 C-43.12253053 46.75440375 -46.24667969 46.58967507 -49.375 46.4375 C-50.20644531 46.39431641 -51.03789063 46.35113281 -51.89453125 46.30664062 C-53.92953228 46.20138195 -55.96474703 46.10026928 -58 46 C-57.45730469 45.07058594 -56.91460938 44.14117187 -56.35546875 43.18359375 C-55.63260718 41.93501468 -54.90996253 40.68631001 -54.1875 39.4375 C-53.83107422 38.82841797 -53.47464844 38.21933594 -53.10742188 37.59179688 C-50.74518233 33.49580354 -48.78642845 29.37872209 -47 25 C-55.60346389 28.18824826 -63.17066554 32.29170359 -70.9453125 37.109375 C-74 39 -74 39 -76 40 C-74.00121665 33.32430517 -71.34842514 27.23347156 -68.125 21.0625 C-67.70347656 20.21365234 -67.28195312 19.36480469 -66.84765625 18.49023438 C-63.66618625 12.37539067 -63.66618625 12.37539067 -60.5390625 10.61328125 C-59.28222656 10.30970703 -59.28222656 10.30970703 -58 10 C-57.09765625 9.54882812 -56.1953125 9.09765625 -55.265625 8.6328125 C-37.12370625 -0.43814687 -20.01410304 -0.55223037 0 0 Z " fill="#1D6152" transform="translate(640,278)"/>
<path d="M0 0 C1.25189621 0.00131424 1.25189621 0.00131424 2.52908325 0.00265503 C25.33104386 0.08130031 46.20320044 3.87164392 67.75 11.375 C68.82797852 11.75011719 68.82797852 11.75011719 69.92773438 12.1328125 C90.90233096 19.61053351 119.01446427 33.2716964 131.75 52.375 C132.41167347 56.05096371 132.03662669 57.74442128 130.5 61.125 C128.59613263 63.57282948 127.72692549 64.54807625 124.75 65.375 C118.7840385 65.48973003 116.25598616 63.37546983 112.14453125 59.5234375 C91.21717683 40.74685523 63.81450716 29.58116279 36.75 23.375 C35.97253418 23.19565918 35.19506836 23.01631836 34.39404297 22.83154297 C-8.80148323 13.3569416 -55.59849668 24.71691309 -92.60693359 47.84814453 C-98.89676262 51.95531411 -104.95261568 56.28554503 -110.75 61.0625 C-113.31878896 63.01319184 -115.20384187 63.82341252 -118.4375 64.0625 C-122.25 63.375 -122.25 63.375 -125.25 61.375 C-127.46779318 58.04831022 -127.80858597 56.31635897 -127.81640625 52.4375 C-126.25210662 46.74129168 -120.9998649 43.39864112 -116.4375 40.125 C-115.77733887 39.64756348 -115.11717773 39.17012695 -114.43701172 38.67822266 C-107.61429438 33.8141027 -100.53712107 29.50062027 -93.25 25.375 C-92.61433105 25.00665039 -91.97866211 24.63830078 -91.32373047 24.25878906 C-72.69417961 13.51616734 -52.36198816 6.35718941 -31.25 2.375 C-30.30592285 2.19098633 -29.3618457 2.00697266 -28.38916016 1.81738281 C-18.92238718 0.15070789 -9.58238962 -0.02462666 0 0 Z " fill="#347659" transform="translate(510.25,67.625)"/>
<path d="M0 0 C41.71428571 0 41.71428571 0 50.59375 8.53125 C56.58499571 14.99239733 58.61991742 21.40497537 58.3515625 30.1875 C57.44845519 37.41235845 54.72956844 43.38839614 49 48 C44.65517241 51 44.65517241 51 41 51 C42.62323704 53.37622152 44.24824073 55.75119051 45.875 58.125 C46.36589111 58.84187988 46.85678223 59.55875977 47.36254883 60.29736328 C49.85759841 63.92863358 52.37378975 67.54018332 54.95703125 71.109375 C55.41674316 71.74472168 55.87645508 72.38006836 56.35009766 73.03466797 C57.22971609 74.24506662 58.11340097 75.45252234 59.00146484 76.65673828 C62 80.78232171 62 80.78232171 62 83 C45.32979911 84.66365916 45.32979911 84.66365916 40.30859375 81.078125 C38.24105517 78.16026262 36.6425541 75.17680793 35 72 C33.22417143 69.27276193 31.35498043 66.61131948 29.5 63.9375 C25 57.34047565 25 57.34047565 25 55 C22.36 55 19.72 55 17 55 C17 64.57 17 74.14 17 84 C11.39 84 5.78 84 0 84 C0 56.28 0 28.56 0 0 Z " fill="#C67D2D" transform="translate(274,691)"/>
<path d="M0 0 C40.66071429 0 40.66071429 0 49.171875 7.0234375 C54.65226863 12.94882035 57.34801796 19.72091145 57.5625 27.75 C57.1272819 36.02903517 54.90466674 42.09533326 49 48 C45.70069605 49.97958237 43.84926685 51 40 51 C41.79112803 53.54204768 43.58284599 56.08367573 45.375 58.625 C45.91286133 59.388125 46.45072266 60.15125 47.00488281 60.9375 C49.66355665 64.70564985 52.3297951 68.46768494 55.0234375 72.2109375 C55.71493896 73.17265869 55.71493896 73.17265869 56.42041016 74.15380859 C57.29566457 75.36913615 58.17289357 76.58304449 59.05224609 77.79541016 C62 81.89012159 62 81.89012159 62 83 C44.47464014 84.61238272 44.47464014 84.61238272 39.5 81.37109375 C37.68315605 78.68670681 36.38860406 75.93111744 35 73 C33.08971225 69.95411314 31.0675375 66.98410275 29.0625 64 C28.08802799 62.52545132 27.120076 61.0465632 26.16015625 59.5625 C25.53572632 58.60537109 25.53572632 58.60537109 24.89868164 57.62890625 C24 56 24 56 24 54 C21.36 54 18.72 54 16 54 C16 63.57 16 73.14 16 83 C10.72 83 5.44 83 0 83 C0 55.61 0 28.22 0 0 Z " fill="#C77D2C" transform="translate(699,691)"/>
<path d="M0 0 C6.14567268 5.24285704 6.14567268 5.24285704 6.64453125 9.6328125 C6.23371034 13.90534998 5.30032712 15.76972171 2.33203125 18.8828125 C-0.85267145 20.64664784 -3.14637839 20.76571835 -6.66796875 19.8828125 C-10.37357641 17.45407688 -13.68202981 14.73348115 -17.05859375 11.875 C-28.53826677 2.16945826 -42.27233236 -3.64943421 -56.54296875 -7.9296875 C-57.57695801 -8.24039185 -57.57695801 -8.24039185 -58.63183594 -8.55737305 C-85.17306481 -16.1382994 -117.15483163 -11.10264464 -141.10546875 2.1953125 C-147.8892867 6.10444809 -153.77896151 10.72376596 -159.66796875 15.8828125 C-163.73703799 19.33721871 -166.16710821 20.97931883 -171.66796875 20.8828125 C-175.11132673 18.90606996 -176.87227624 17.62223334 -178.5078125 14.046875 C-179.24631055 10.95861044 -179.14343014 8.83373528 -177.71484375 5.9765625 C-164.52468442 -10.96237895 -138.74843239 -21.63300752 -118.66796875 -27.1171875 C-117.47042969 -27.45621094 -116.27289063 -27.79523438 -115.0390625 -28.14453125 C-75.19786084 -37.47089669 -31.58157642 -25.06180735 0 0 Z " fill="#347659" transform="translate(597.66796875,145.1171875)"/>
<path d="M0 0 C1.03769531 -0.02578125 2.07539062 -0.0515625 3.14453125 -0.078125 C7.39984195 0.3807275 9.95496537 1.83353358 12.75805664 5.05493164 C18.51179014 13.89042572 16.49136662 28.40405642 16.44824219 38.55737305 C16.43756035 41.54561839 16.44816415 44.53325772 16.4609375 47.52148438 C16.47304036 61.82484273 15.79526338 75.61332421 11.5 89.375 C11.10808472 90.64428345 11.10808472 90.64428345 10.70825195 91.93920898 C4.21051018 112.12814046 -8.6828092 127.18737615 -27.4375 137 C-29.59724974 138.10663888 -31.76175857 139.20293344 -33.93017578 140.29248047 C-36.28065862 141.48814762 -38.58088396 142.76236838 -40.875 144.0625 C-57.17636193 153.19252635 -57.17636193 153.19252635 -67.0390625 150.68359375 C-70.79735104 149.37844264 -72.56563504 148.62029744 -74.8125 145.25 C-75.3995142 140.8054639 -75.17474257 138.82080647 -72.75 135 C-69.78945529 131.45133361 -65.34362255 129.57242014 -60.8269043 128.99707031 C-58.77192084 128.92065659 -56.74280139 128.93783587 -54.6875 129 C-53.99785156 129.00515625 -53.30820312 129.0103125 -52.59765625 129.015625 C-49.68031117 129.06024978 -46.98325307 129.20905921 -44.140625 129.890625 C-37.07852954 130.98074712 -28.12759087 123.93205972 -22.453125 120.203125 C-15.73057365 115.23082371 -10.39832618 109.20270421 -5.8125 102.25 C-7.7925 102.25 -9.7725 102.25 -11.8125 102.25 C-11.63074219 101.65316406 -11.44898438 101.05632812 -11.26171875 100.44140625 C-6.8249126 85.12873683 -5.33920733 70.56686081 -5.47631836 54.67529297 C-5.49997329 51.7532996 -5.49684317 48.83222186 -5.49023438 45.91015625 C-5.50650871 35.76059295 -5.96952217 25.87423239 -7.3737793 15.81860352 C-7.97261989 10.94756684 -8.00290865 6.14773351 -7.8125 1.25 C-5.13594199 -0.08827901 -2.98815948 0.04421444 0 0 Z " fill="#1D6051" transform="translate(640.8125,369.75)"/>
<path d="M0 0 C17.16 0 34.32 0 52 0 C52 5.28 52 10.56 52 16 C40.45 16 28.9 16 17 16 C17 21.61 17 27.22 17 33 C26.57 33 36.14 33 46 33 C46 38.28 46 43.56 46 49 C36.43 49 26.86 49 17 49 C17 55.27 17 61.54 17 68 C28.55 68 40.1 68 52 68 C52 73.28 52 78.56 52 84 C34.84 84 17.68 84 0 84 C0 56.28 0 28.56 0 0 Z " fill="#C37B2C" transform="translate(539,691)"/>
<path d="M0 0 C16.83 0 33.66 0 51 0 C51 5.28 51 10.56 51 16 C39.45 16 27.9 16 16 16 C16 21.94 16 27.88 16 34 C25.57 34 35.14 34 45 34 C45 38.95 45 43.9 45 49 C35.43 49 25.86 49 16 49 C16 55.27 16 61.54 16 68 C27.55 68 39.1 68 51 68 C51 72.95 51 77.9 51 83 C34.17 83 17.34 83 0 83 C0 55.61 0 28.22 0 0 Z " fill="#C97F2C" transform="translate(772,691)"/>
<path d="M0 0 C16.5 0 33 0 50 0 C50 5.28 50 10.56 50 16 C38.78 16 27.56 16 16 16 C16 21.61 16 27.22 16 33 C25.57 33 35.14 33 45 33 C45 38.28 45 43.56 45 49 C35.43 49 25.86 49 16 49 C16 55.27 16 61.54 16 68 C27.22 68 38.44 68 50 68 C50 72.95 50 77.9 50 83 C33.5 83 17 83 0 83 C0 55.61 0 28.22 0 0 Z " fill="#C97F2D" transform="translate(837,691)"/>
<path d="M0 0 C16.5 0 33 0 50 0 C50 4.95 50 9.9 50 15 C38.78 15 27.56 15 16 15 C16 20.61 16 26.22 16 32 C25.9 32 35.8 32 46 32 C46 37.28 46 42.56 46 48 C36.1 48 26.2 48 16 48 C16 54.27 16 60.54 16 67 C27.22 67 38.44 67 50 67 C50 71.95 50 76.9 50 82 C33.5 82 17 82 0 82 C0 54.94 0 27.88 0 0 Z " fill="#CA7F2C" transform="translate(209,692)"/>
<path d="M0 0 C2.52608265 1.87625704 4.71816811 3.81737819 7 6 C5.59155282 9.21524305 3.89655214 11.32183868 1.375 13.75 C0.74335938 14.36359375 0.11171875 14.9771875 -0.5390625 15.609375 C-1.02117187 16.06828125 -1.50328125 16.5271875 -2 17 C-4.80990423 15.89306803 -7.49251082 14.74891605 -10.1875 13.375 C-14.59133624 11.48212302 -19.29226781 11.19566385 -24 12 C-26.29673292 13.238938 -26.29673292 13.238938 -28 15 C-28.66680368 17.95720628 -28.66680368 17.95720628 -28 21 C-24.52743252 25.79685169 -18.92447588 27.37295009 -13.625 29.5 C1.32935755 35.55197067 1.32935755 35.55197067 6.25 41.5 C6.72953125 42.0671875 7.2090625 42.634375 7.703125 43.21875 C11.9762694 49.08788809 11.66083993 54.93409614 11 62 C9.26678683 68.6915192 4.59018987 73.19262744 -1 77 C-9.45113772 81.93420463 -22.02749895 81.24076606 -31.328125 79.30859375 C-37.08661659 77.38641569 -42.80772375 74.48371792 -47 70 C-47.7109375 67.8125 -47.7109375 67.8125 -48 66 C-46.75803878 64.84545838 -45.50607155 63.70167438 -44.25 62.5625 C-43.55390625 61.92441406 -42.8578125 61.28632812 -42.140625 60.62890625 C-39.96251228 58.97147376 -38.71300751 58.22834933 -36 58 C-34.26550476 58.91455203 -32.52844391 59.83438756 -30.87890625 60.89453125 C-24.01779003 64.93132104 -16.97547223 65.02813937 -9.375 63.0625 C-6.59454922 60.647898 -6.54757633 59.84879663 -6.125 56.3125 C-6.05626984 54.87603958 -6.00602973 53.4380911 -6 52 C-9.00632245 50.45415399 -12.05877373 49.10022722 -15.17578125 47.79296875 C-16.16900391 47.37080078 -17.16222656 46.94863281 -18.18554688 46.51367188 C-20.25604558 45.63555281 -22.32894517 44.76307154 -24.40429688 43.89648438 C-39.02223504 37.65055216 -39.02223504 37.65055216 -42.875 30.875 C-43.26429688 30.21242188 -43.65359375 29.54984375 -44.0546875 28.8671875 C-46.92681185 23.19414849 -46.60199686 17.41130773 -44.9375 11.4375 C-42.56480267 5.03673512 -38.02935549 0.83506913 -32.125 -2.4375 C-22.36357241 -6.30523546 -8.912598 -5.48723384 0 0 Z " fill="#C87E2D" transform="translate(185,695)"/>
<path d="M0 0 C-0.57053665 3.77235429 -2.16643421 5.62716051 -4.8125 8.3125 C-5.49957031 9.03050781 -6.18664062 9.74851562 -6.89453125 10.48828125 C-9 12 -9 12 -11.04296875 11.85546875 C-13.58376164 10.74482276 -15.8641711 9.39305786 -18.21875 7.9375 C-23.66219955 5.07252655 -30.62973448 5.00779383 -36.44140625 6.71875 C-43.84005281 9.82342741 -48.88661569 13.99201192 -53 21 C-55.2546715 27.7640145 -55.44604621 37.22727043 -52.87109375 43.9453125 C-51.40168758 46.20888858 -49.89776488 48.08494341 -48 50 C-47.48566406 50.51949219 -46.97132813 51.03898438 -46.44140625 51.57421875 C-40.3440698 57.10141465 -34.51368718 57.42790057 -26.58984375 57.328125 C-21.53510146 56.86610285 -17.48078774 55.29913079 -13 53 C-12.24976563 52.62617187 -11.49953125 52.25234375 -10.7265625 51.8671875 C-10.15679688 51.58101562 -9.58703125 51.29484375 -9 51 C-7.46452525 52.40078398 -5.94694852 53.82120903 -4.4375 55.25 C-3.59058594 56.03890625 -2.74367188 56.8278125 -1.87109375 57.640625 C0 60 0 60 0 62.10546875 C-3.24348492 68.2503523 -10.74358388 71.01880156 -17 73 C-28.90282673 76.34881199 -41.74598596 74.50703836 -52.41796875 68.6796875 C-61.86493113 62.88808242 -68.01028211 54.8598577 -71.08203125 44.26953125 C-73.62521018 33.65228113 -73.19680899 21.70178272 -68 12 C-66.21627203 9.10593993 -64.2420993 6.55154157 -62 4 C-61.49855469 3.39414062 -60.99710937 2.78828125 -60.48046875 2.1640625 C-44.74810926 -15.3673746 -17.15178466 -14.74365444 0 0 Z " fill="#C77D2C" transform="translate(526,701)"/>
<path d="M0 0 C5.61 0 11.22 0 17 0 C20.52840599 8.52698115 23.59325502 17.19477092 26.63623047 25.90332031 C27.49597345 28.36347801 28.35903295 30.82245212 29.22265625 33.28125 C32.22105488 41.83082537 35.17520695 50.39120849 38 59 C40.51614152 56.48385848 41.10811678 54.29950494 42.28515625 50.9375 C42.50237335 50.32193741 42.71959045 49.70637482 42.94338989 49.07215881 C43.65532808 47.05001253 44.35898444 45.02509032 45.0625 43 C45.55138715 41.60587981 46.04073032 40.21191945 46.53051758 38.81811523 C48.028615 34.54827498 49.51514221 30.27445895 51 26 C51.46512764 24.66290869 51.93029582 23.32583149 52.39550781 21.98876953 C54.94294942 14.66351221 57.47655807 7.33355841 60 0 C65.94 0 71.88 0 78 0 C76.08483196 6.56577148 73.9914962 12.99476312 71.59375 19.3984375 C71.11150719 20.69680794 71.11150719 20.69680794 70.61952209 22.02140808 C69.58326698 24.80729033 68.54197094 27.59125103 67.5 30.375 C66.96909256 31.79798904 66.96909256 31.79798904 66.42745972 33.24972534 C50.40562414 76.18875171 50.40562414 76.18875171 47 83 C41.39 83 35.78 83 30 83 C25.05634161 69.63636046 20.1162894 56.27139377 15.18066406 42.90478516 C13.83708356 39.26613484 12.49281099 35.62774249 11.14746094 31.98974609 C9.84713218 28.47313875 8.54919368 24.95566059 7.25357056 21.43731689 C6.57920123 19.60780904 5.90230338 17.77923384 5.2253418 15.95068359 C4.82226807 14.85449707 4.41919434 13.75831055 4.00390625 12.62890625 C3.66174072 11.70150635 3.3195752 10.77410645 2.96704102 9.81860352 C1.85748392 6.58461295 0.93928162 3.28748566 0 0 Z " fill="#C77D2D" transform="translate(337,691)"/>
<path d="M0 0 C1.19520045 0.82225092 2.38120741 1.65789043 3.5625 2.5 C5.72364406 3.84348828 7.88972933 5.17569109 10.0625 6.5 C11.18011719 7.1909375 12.29773438 7.881875 13.44921875 8.59375 C16.78396476 10.63560201 20.14855551 12.59454261 23.5625 14.5 C20.81459404 16.3319373 19.34377348 16.91275673 16.25 17.6875 C4.38212706 21.16989775 -4.65890185 26.85441092 -13.4375 35.5 C-7.4975 35.83 -1.5575 36.16 4.5625 36.5 C-5.872704 49.544005 -22.04045396 52.38157236 -37.7890625 54.33886719 C-45.26882149 55.3272248 -51.58781009 57.25436205 -58.4375 60.5 C-59.283125 60.89960938 -60.12875 61.29921875 -61 61.7109375 C-62.82953074 62.60664526 -64.637201 63.54690053 -66.4375 64.5 C-59.39311161 45.94405009 -47.41132062 32.89996619 -31.4375 21.5 C-33.11779297 22.34884766 -33.11779297 22.34884766 -34.83203125 23.21484375 C-36.30463422 23.95583506 -37.77729341 24.69671466 -39.25 25.4375 C-40.35698242 25.99727539 -40.35698242 25.99727539 -41.48632812 26.56835938 C-42.55463867 27.10493164 -42.55463867 27.10493164 -43.64453125 27.65234375 C-44.2991333 27.98226318 -44.95373535 28.31218262 -45.62817383 28.65209961 C-47.4375 29.5 -47.4375 29.5 -50.4375 30.5 C-45.94412066 18.00840545 -35.6588283 7.92082836 -24 2 C-16.2266965 -1.64848665 -8.20121707 -3.57871291 0 0 Z " fill="#1D6152" transform="translate(405.4375,305.5)"/>
<path d="M0 0 C1.06347656 -0.00257813 2.12695312 -0.00515625 3.22265625 -0.0078125 C5.9375 0.125 5.9375 0.125 7.9375 1.125 C8.02951445 7.08247737 7.71087436 12.74378161 6.95703125 18.64453125 C5.72878702 29.29732488 5.59963705 39.90044255 5.62182617 50.61450195 C5.62500696 53.81951327 5.60134188 57.023616 5.57617188 60.22851562 C5.54100556 71.9031679 6.17568168 82.75619366 8.9375 94.125 C9.14874512 95.02822998 9.35999023 95.93145996 9.57763672 96.86206055 C10.00362431 98.62320194 10.46383388 100.37607895 10.9375 102.125 C2.22728022 100.94710551 -4.30131881 99.31671841 -9.90234375 91.96875 C-19.81533528 76.2147702 -17.47468107 52.96395404 -17.0625 35.125 C-17.04316406 34.16368164 -17.02382813 33.20236328 -17.00390625 32.21191406 C-16.93910629 29.39025684 -16.85005201 26.57060987 -16.75 23.75 C-16.72768311 22.91275391 -16.70536621 22.07550781 -16.68237305 21.21289062 C-16.38464926 14.54065186 -15.3208215 7.94790188 -11.0625 2.625 C-7.47723187 -0.0639511 -4.33930341 -0.01054509 0 0 Z " fill="#367558" transform="translate(383.0625,369.875)"/>
<path d="M0 0 C20.13 0 40.26 0 61 0 C61 5.28 61 10.56 61 16 C53.74 16 46.48 16 39 16 C39 38.11 39 60.22 39 83 C33.72 83 28.44 83 23 83 C23 60.89 23 38.78 23 16 C15.41 16 7.82 16 0 16 C0 10.72 0 5.44 0 0 Z " fill="#C77D2C" transform="translate(627,691)"/>
<path d="M0 0 C4.99381741 3.73811864 8.25689025 7.95038381 10 14 C10.98060648 21.25648792 9.72773658 27.67810755 6 34 C1.93590579 38.66118862 -2.5936497 41.54804011 -8.796875 42.37109375 C-16.11050715 42.53555373 -21.1548213 41.52690436 -27 37 C-29.375 34.5625 -29.375 34.5625 -31 32 C-31.5775 31.154375 -32.155 30.30875 -32.75 29.4375 C-34.95140445 23.38363777 -35.18388219 16.20928915 -32.8125 10.125 C-25.51039045 -2.46484406 -13.31699099 -6.76608339 0 0 Z " fill="#34745A" transform="translate(324,820)"/>
<path d="M0 0 C1.03769531 -0.02578125 2.07539062 -0.0515625 3.14453125 -0.078125 C7.39755236 0.38048061 9.94840355 1.83542902 12.75976562 5.04492188 C18.0901511 13.27748713 16.72256487 26.83323048 16.83276367 36.37841797 C16.86104344 38.13372527 16.9090717 39.88881975 16.97631836 41.64306641 C17.53058125 56.22194224 17.53058125 56.22194224 14.24731445 61.1796875 C8.34537913 66.53189457 3.07998784 68.33733043 -4.8125 68.25 C-4.83231934 67.1576001 -4.85213867 66.0652002 -4.87255859 64.93969727 C-4.9499154 60.80001697 -5.03840457 56.6606305 -5.12988281 52.52124023 C-5.16764559 50.74590955 -5.20257891 48.97051593 -5.234375 47.19506836 C-5.41304239 37.3320699 -5.79428039 27.60843388 -7.12191772 17.82521057 C-7.87451118 12.27486658 -8.0298496 6.84071479 -7.8125 1.25 C-5.13594199 -0.08827901 -2.98815948 0.04421444 0 0 Z " fill="#377559" transform="translate(640.8125,369.75)"/>
<path d="M0 0 C5.28 0 10.56 0 16 0 C16 27.39 16 54.78 16 83 C10.72 83 5.44 83 0 83 C0 55.61 0 28.22 0 0 Z " fill="#C87D2B" transform="translate(425,691)"/>
<path d="M0 0 C2.125 0.0625 2.125 0.0625 5 1 C6.24609375 2.37890625 6.24609375 2.37890625 7.5625 4.125 C13.52037281 11.56851204 23.64143548 16.5442233 33 18 C48.13799318 19.28288078 61.78308128 16.57917491 74 7 C75.92136536 5.12523492 77.73534477 3.23989777 79.46484375 1.1875 C79.97144531 0.795625 80.47804688 0.40375 81 0 C83.19140625 0.3125 83.19140625 0.3125 85 1 C82.61159045 11.22406894 77.81889131 19.07034546 69 25 C60.54291 29.5096152 52.36973867 32.38684279 42.75 32.3125 C42.00564697 32.30831055 41.26129395 32.30412109 40.49438477 32.29980469 C34.31613076 32.17411356 28.79396021 31.22101808 23 29 C22.3090625 28.74476563 21.618125 28.48953125 20.90625 28.2265625 C11.92145034 24.34028011 4.71747077 17.20556584 0.76171875 8.30859375 C-0.18313886 5.44494837 -0.39326309 2.98879949 0 0 Z " fill="#052030" transform="translate(470,460)"/>
<path d="M0 0 C2.58078568 2.25615855 4.23581116 4.87093322 6.00585938 7.78515625 C12.29496341 18.12431158 20.82723399 29.39450615 33.01171875 32.85546875 C36.6482208 34.2482728 37.8267956 35.76566463 40.125 38.875 C45.23403616 45.46871334 51.01893135 51.20109587 57 57 C52.92449723 58.6781482 49.41278611 57.23382951 45.4375 55.9375 C44.72513184 55.70780518 44.01276367 55.47811035 43.27880859 55.24145508 C25.44705029 49.26470001 12.33021466 37.38991164 2 22 C2 27.61 2 33.22 2 39 C-6.18324152 34.90837924 -11.52745593 26.79088323 -16 19 C-12.97499929 20.06764731 -10.61550776 21.25894376 -7.9375 23.0625 C-5.36091406 24.7619503 -3.91211393 25.39252677 -1 26 C-1.00523682 25.35450195 -1.01047363 24.70900391 -1.01586914 24.04394531 C-1.03668657 21.11264015 -1.04967534 18.18135057 -1.0625 15.25 C-1.07087891 14.23421875 -1.07925781 13.2184375 -1.08789062 12.171875 C-1.09111328 11.1921875 -1.09433594 10.2125 -1.09765625 9.203125 C-1.10289307 8.30239258 -1.10812988 7.40166016 -1.11352539 6.47363281 C-1.00762312 4.16610196 -0.65132813 2.20865595 0 0 Z " fill="#1D6052" transform="translate(459,243)"/>
<path d="M0 0 C7 0 7 0 9.1953125 1.7734375 C10.15050781 3.06121094 10.15050781 3.06121094 11.125 4.375 C11.86878906 5.35855469 12.61257813 6.34210937 13.37890625 7.35546875 C14.25415837 8.56919323 15.12768314 9.78416421 16 11 C17.15431454 12.57989004 18.30930511 14.1592863 19.46484375 15.73828125 C22.67689822 20.1359582 25.83402141 24.56762997 29 29 C29.33 19.43 29.66 9.86 30 0 C32.31 0 34.62 0 37 0 C37 14.19 37 28.38 37 43 C30 43 30 43 27.8046875 41.2265625 C26.84949219 39.93878906 26.84949219 39.93878906 25.875 38.625 C25.13121094 37.64144531 24.38742187 36.65789063 23.62109375 35.64453125 C22.74584163 34.43080677 21.87231686 33.21583579 21 32 C19.84568546 30.42010996 18.69069489 28.8407137 17.53515625 27.26171875 C14.32310178 22.8640418 11.16597859 18.43237003 8 14 C7.67 23.57 7.34 33.14 7 43 C4.69 43 2.38 43 0 43 C0 28.81 0 14.62 0 0 Z " fill="#36765B" transform="translate(676,818)"/>
<path d="M0 0 C3.01512828 1.51943472 4.82559643 3.42339332 6.984375 6 C5.334375 7.32 3.684375 8.64 1.984375 10 C1.36691406 9.69964844 0.74945312 9.39929688 0.11328125 9.08984375 C-5.77487324 6.44599965 -10.71448716 4.82075272 -17.015625 7 C-20.39747492 9.73426164 -23.6800171 12.76781723 -24.3515625 17.234375 C-24.44735125 23.40317053 -23.83675184 27.0727575 -20.015625 32 C-15.67938137 34.98719005 -12.2231572 35.55794988 -7.015625 35 C-3.59642431 34.12441886 -3.59642431 34.12441886 -1.015625 32 C-0.03688962 28.40614946 -0.03688962 28.40614946 -0.015625 25 C-3.645625 25 -7.275625 25 -11.015625 25 C-11.015625 22.69 -11.015625 20.38 -11.015625 18 C-5.075625 18 0.864375 18 6.984375 18 C7.108125 20.866875 7.231875 23.73375 7.359375 26.6875 C7.41399902 27.58170654 7.46862305 28.47591309 7.52490234 29.3972168 C7.64468711 35.13980139 7.64468711 35.13980139 5.71655273 37.65161133 C0.00756128 42.50025961 -5.85208996 43.54558657 -13.13671875 43.3671875 C-19.10575565 42.60587207 -23.98351715 40.35840159 -27.9375 35.76953125 C-32.61058893 28.9490467 -33.9431169 23.23957925 -33.015625 15 C-30.75423019 7.60291417 -26.71542498 2.79842216 -20.015625 -1 C-13.38162276 -3.21133408 -6.4851075 -2.39167085 0 0 Z " fill="#35745A" transform="translate(770.015625,819)"/>
<path d="M0 0 C7 0 7 0 8.96875 1.49365234 C9.4740625 2.18410645 9.979375 2.87456055 10.5 3.5859375 C11.0775 4.35292969 11.655 5.11992188 12.25 5.91015625 C12.8275 6.72355469 13.405 7.53695312 14 8.375 C14.5775 9.14972656 15.155 9.92445313 15.75 10.72265625 C19.95188825 16.39708123 23.95117247 22.21596066 28 28 C28.33 18.76 28.66 9.52 29 0 C31.31 0 33.62 0 36 0 C36 14.19 36 28.38 36 43 C29 43 29 43 27.03125 41.39868164 C26.5259375 40.65996826 26.020625 39.92125488 25.5 39.16015625 C24.63375 37.93522461 24.63375 37.93522461 23.75 36.68554688 C23.1725 35.81994141 22.595 34.95433594 22 34.0625 C20.8345535 32.38586994 19.66788877 30.71008602 18.5 29.03515625 C17.9946875 28.2862915 17.489375 27.53742676 16.96875 26.76586914 C14.10900648 22.74825575 11.02762685 18.8926631 8 15 C7.67 24.24 7.34 33.48 7 43 C4.69 43 2.38 43 0 43 C0 28.81 0 14.62 0 0 Z " fill="#35765B" transform="translate(359,818)"/>
<path d="M0 0 C0.01030746 0.57612534 0.02061493 1.15225067 0.03123474 1.74583435 C0.1407909 7.83104483 0.25523528 13.91615043 0.37231445 20.0012207 C0.41519369 22.26161469 0.45689349 24.52203142 0.49731445 26.7824707 C0.73234687 39.87754849 1.07807952 52.93361532 2 66 C-6.88031113 62.58302849 -10.8307463 56.38999794 -14.77734375 47.91796875 C-19.0812296 37.64639454 -19.12835945 28.34449473 -15.33203125 17.89453125 C-13.39543956 13.68627775 -5.32765838 0 0 0 Z " fill="#367559" transform="translate(359,386)"/>
<path d="M0 0 C8.05300018 3.42566378 13.57152969 12.24083035 17 20 C20.46183037 29.40675373 19.70093334 39.44755521 15.91796875 48.625 C12.06765224 56.43659315 6.62205972 62.40587439 0 68 C-0.66 68 -1.32 68 -2 68 C-1.86722656 66.70707031 -1.73445312 65.41414063 -1.59765625 64.08203125 C-1.13487885 59.54829993 -0.68595058 55.01331147 -0.24365234 50.47753906 C-0.0504528 48.51302101 0.15104343 46.54931915 0.35546875 44.5859375 C1.72031555 29.90888934 1.76408453 14.6482019 0 0 Z " fill="#367559" transform="translate(664,386)"/>
<path d="M0 0 C4.17030735 2.75397655 6.82465438 5.52392861 9 10 C9.3984375 13.55859375 9.3984375 13.55859375 9.375 17.4375 C9.38273437 18.71496094 9.39046875 19.99242187 9.3984375 21.30859375 C8.81265162 26.73572761 7.00772321 29.92197051 3.3125 33.875 C-1.06015688 36.68010064 -2.88340247 36.64972667 -8 36 C-12.22836704 34.62332236 -13.72975992 32.12160507 -15.8125 28.375 C-18.78682878 21.92905718 -18.97498004 17.02756961 -16.8125 10.3125 C-12.80309425 2.98496535 -8.94477058 -1.48246663 0 0 Z " fill="#042130" transform="translate(469,407)"/>
<path d="M0 0 C4.20505844 1.40168615 5.74042329 3.88713613 7.8125 7.625 C11.05923259 14.71438444 10.91504688 20.02750198 8.3125 27.3125 C6.52486988 31.3175389 5.04737078 33.97631461 1 36 C-2.83484227 36.66252356 -5.99876842 36.32598237 -9.6875 35.125 C-14.61909563 30.59326347 -17.2734928 24.55313067 -17.5625 17.875 C-17.19056563 11.47169746 -14.81945966 6.43326971 -10.1875 2 C-6.36116355 -0.40083856 -4.4413408 -0.64601321 0 0 Z " fill="#042130" transform="translate(563,407)"/>
<path d="M0 0 C2.64 0 5.28 0 8 0 C8.01458252 0.88260498 8.02916504 1.76520996 8.04418945 2.67456055 C8.10542067 5.96438643 8.1796033 9.2533993 8.26245117 12.54272461 C8.29560557 13.96351202 8.32366692 15.38442813 8.34643555 16.80541992 C8.38015847 18.8539082 8.43247745 20.9012272 8.48828125 22.94921875 C8.51446533 24.17987061 8.54064941 25.41052246 8.56762695 26.6784668 C9.02959973 30.22738812 9.86544547 32.1568715 12 35 C15.15796107 36.57898053 18.60670636 36.81928171 22 36 C25.33055827 33.32871278 26.83887346 31.8340282 27.65942383 27.58666992 C27.67513428 26.31412354 27.69084473 25.04157715 27.70703125 23.73046875 C27.72215256 23.04946609 27.73727386 22.36846344 27.75285339 21.66682434 C27.79560078 19.50670937 27.80455435 17.34799507 27.8125 15.1875 C27.83565489 13.71675998 27.86102231 12.24605302 27.88867188 10.77539062 C27.9513916 7.18362029 27.98383125 3.59231596 28 0 C30.64 0 33.28 0 36 0 C36.09965569 4.26832981 36.17183391 8.53602469 36.21972656 12.80517578 C36.23971295 14.25418917 36.26691197 15.70312325 36.30175781 17.15185547 C36.65314113 32.14765531 36.65314113 32.14765531 32 39 C26.97202194 43.90227861 22.3298109 44.36130484 15.53515625 44.28125 C10.42220954 43.71402016 7.21343339 41.27902438 3.6875 37.5625 C0.44520278 32.63901163 -0.2454182 28.83663887 -0.1953125 22.94921875 C-0.1924826 22.29041214 -0.18965271 21.63160553 -0.18673706 20.95283508 C-0.17560924 18.86419938 -0.15051948 16.77600444 -0.125 14.6875 C-0.11496059 13.26498018 -0.10583642 11.8424536 -0.09765625 10.41992188 C-0.07569447 6.94647319 -0.04121646 3.47327967 0 0 Z " fill="#34745B" transform="translate(475,818)"/>
<path d="M0 0 C2.9416325 1.6473142 4.93460753 3.20914474 7.125 5.75 C5.145 7.07 3.165 8.39 1.125 9.75 C0.279375 9.255 -0.56625 8.76 -1.4375 8.25 C-5.26989604 6.57768173 -7.73740181 6.35966055 -11.875 6.75 C-12.865 7.41 -13.855 8.07 -14.875 8.75 C-14.92667527 11.17267086 -14.92667527 11.17267086 -13.875 13.75 C-10.79719242 15.41714577 -7.94468061 16.45246085 -4.5859375 17.38671875 C0.94449097 18.98665876 4.16144312 20.4920765 7.125 25.75 C7.94441225 29.91478128 8.1069688 33.79407847 6.16796875 37.65625 C3.6052911 40.97552772 1.02506527 42.4767434 -2.875 43.75 C-9.98889821 44.66449215 -15.95138084 43.92726917 -21.875 39.75 C-23.59375 38.23828125 -23.59375 38.23828125 -24.875 36.75 C-24.875 34.75 -24.875 34.75 -23.1875 33 C-20.875 31.75 -20.875 31.75 -18.3125 32.4375 C-15.875 33.75 -15.875 33.75 -12.875 35.75 C-8.68926024 35.94932094 -4.88924265 36.08808088 -0.875 34.75 C-1.205 32.44 -1.535 30.13 -1.875 27.75 C-2.67550781 27.51216797 -2.67550781 27.51216797 -3.4921875 27.26953125 C-19.12572886 22.37390671 -19.12572886 22.37390671 -22.875 16.75 C-23.53600598 12.70742659 -23.79428345 8.54827957 -21.89453125 4.83203125 C-16.32760289 -2.10521793 -8.10576187 -3.20378925 0 0 Z " fill="#35745A" transform="translate(443.875,818.25)"/>
<path d="M0 0 C0.52207031 0.37511719 1.04414063 0.75023437 1.58203125 1.13671875 C11.96187562 8.38633587 11.96187562 8.38633587 24 11 C25.53515625 12.46875 25.53515625 12.46875 27.0625 14.5 C33.76385993 22.55589013 41.90541387 27.40481795 51.6640625 30.9921875 C54 32 54 32 55 34 C39.83647725 37.6839795 26.86223724 35.87088568 13.41748047 27.88476562 C6.75570713 23.75570713 6.75570713 23.75570713 4 21 C4.99 20.67 5.98 20.34 7 20 C6.57847656 19.2265625 6.15695312 18.453125 5.72265625 17.65625 C2.56633682 11.65552977 0.26182321 6.80740347 0 0 Z " fill="#1D6152" transform="translate(412,269)"/>
<path d="M0 0 C0.66 0.598125 1.32 1.19625 2 1.8125 C0.95125002 4.43437494 0.35068687 5.60621361 -2.125 7.0625 C-2.74375 7.31 -3.3625 7.5575 -4 7.8125 C-4.598125 7.1525 -5.19625 6.4925 -5.8125 5.8125 C-10.45537372 2.89932433 -14.65305828 3.02334294 -20 3.8125 C-24.38051389 6.18527836 -26.27511943 9.18255741 -28 13.8125 C-28.75650516 19.64839697 -27.41580276 24.1025111 -24 28.8125 C-20.14214072 31.61821584 -16.62727313 32.33523596 -11.953125 32.18359375 C-8.79202005 31.58298381 -6.56248211 29.67612335 -4 27.8125 C0 27.8125 0 27.8125 1.75 29.3125 C2.1625 29.8075 2.575 30.3025 3 30.8125 C1.49235345 35.03391034 -1.21292869 36.61599864 -5 38.8125 C-11.09475794 40.75058202 -18.36145578 40.92324128 -24.25 38.3125 C-29.67680773 35.16361156 -33.69748617 30.47415869 -36.4375 24.875 C-38.15698196 15.51337601 -36.34637825 9.88976355 -31.1875 2.0625 C-22.26943034 -7.11037165 -10.08742225 -7.35541206 0 0 Z " fill="#35745A" transform="translate(268,822.1875)"/>
<path d="M0 0 C4.24886211 2.52908459 7.42122274 5.26366823 9 10 C9.52759548 15.02513073 9.56992466 18.88050512 7.25 23.4375 C3.43473745 27.78266013 0.54532955 29.75987457 -5.3125 30.3125 C-10.91072543 29.83807412 -13.63539173 27.4723405 -17.375 23.4375 C-19.67426241 18.57367567 -19.78736607 14.29109998 -19 9 C-14.81496443 0.62992886 -9.04596393 -1.78178077 0 0 Z " fill="#022230" transform="translate(317,825)"/>
<path d="M0 0 C0.56847656 0.39832031 1.13695312 0.79664063 1.72265625 1.20703125 C7.60099061 5.24041259 13.00953193 8.34715614 20 10 C20.18175781 11.23234375 20.36351562 12.4646875 20.55078125 13.734375 C21.94234335 22.96572355 23.46761694 32.00195805 26 41 C17.25896354 39.81793813 10.86794659 38.16238356 5.1640625 30.89453125 C-0.31012679 21.98519634 -1.76499487 11.28243099 -1 1 C-0.67 0.67 -0.34 0.34 0 0 Z " fill="#1E6152" transform="translate(368,431)"/>
<path d="M0 0 C3.86178799 3.47485297 7.45191245 7.20907756 11 11 C10.67 11.66 10.34 12.32 10 13 C9.51273438 12.62488281 9.02546875 12.24976563 8.5234375 11.86328125 C-5.46498788 1.76618147 -21.57215452 -0.3564405 -38.375 -0.3125 C-39.59960938 -0.32861328 -40.82421875 -0.34472656 -42.0859375 -0.36132812 C-53.75392215 -0.3675082 -63.69238914 1.55446973 -74 7 C-74.66 6.67 -75.32 6.34 -76 6 C-57.22559804 -13.31081345 -21.7866812 -16.78255286 0 0 Z " fill="#02212F" transform="translate(675,303)"/>
<path d="M0 0 C11.88 0 23.76 0 36 0 C36 2.31 36 4.62 36 7 C31.71 7 27.42 7 23 7 C23 18.88 23 30.76 23 43 C20.36 43 17.72 43 15 43 C15 31.12 15 19.24 15 7 C10.05 7 5.1 7 0 7 C0 4.69 0 2.38 0 0 Z " fill="#35745A" transform="translate(581,818)"/>
<path d="M0 0 C2.701875 -0.061875 5.40375 -0.12375 8.1875 -0.1875 C9.02949951 -0.21481201 9.87149902 -0.24212402 10.73901367 -0.27026367 C15.33694208 -0.32109065 18.25477636 0.04212451 22 3 C25.16955197 6.93461624 25.53348798 10.02077887 25 15 C23.32375739 18.68773373 21.42746406 20.85783496 18 23 C14.37918537 24.20693821 11.0749281 24.10782079 7.3125 24.0625 C3.6928125 24.0315625 3.6928125 24.0315625 0 24 C0 16.08 0 8.16 0 0 Z " fill="#052131" transform="translate(290,707)"/>
<path d="M0 0 C2.536875 -0.061875 5.07375 -0.12375 7.6875 -0.1875 C8.47729248 -0.21481201 9.26708496 -0.24212402 10.08081055 -0.27026367 C14.62873502 -0.32374161 17.43897489 0.14476365 21 3 C23.7512624 5.90209915 24.45097257 7.96015003 24.5 11.9375 C24.38177618 15.76007029 24.14928933 16.79526035 21.8125 20 C16.72349237 23.61884987 12.91808094 24.24145946 6.6875 24.125 C3.3771875 24.063125 3.3771875 24.063125 0 24 C0 16.08 0 8.16 0 0 Z " fill="#052130" transform="translate(715,707)"/>
<path d="M0 0 C2.64 0 5.28 0 8 0 C8 12.21 8 24.42 8 37 C15.26 37 22.52 37 30 37 C30 39.31 30 41.62 30 44 C20.1 44 10.2 44 0 44 C0 29.48 0 14.96 0 0 Z " fill="#33725A" transform="translate(537,817)"/>
<path d="M0 0 C2 2.375 2 2.375 2.5 5.4375 C1.94054063 8.7243238 1.6027992 9.4201079 -1 11.375 C-3.6015625 11.89453125 -3.6015625 11.89453125 -6.625 12.1875 C-13.95607487 13.28539044 -19.27288659 15.7799021 -23.81640625 21.76953125 C-24.85524988 23.35908717 -25.85684704 24.97400086 -26.80859375 26.6171875 C-27.20175781 27.19726562 -27.59492188 27.77734375 -28 28.375 C-28.66 28.375 -29.32 28.375 -30 28.375 C-31.89030274 24.59439452 -31.61768881 20.30248675 -30.3515625 16.3515625 C-26.82887988 8.73413768 -21.16615818 1.71388758 -13.1875 -1.3125 C-8.11375575 -2.03732061 -4.51657428 -2.44647774 0 0 Z " fill="#062030" transform="translate(471,372.625)"/>
<path d="M0 0 C7.41814235 3.75345322 13.95017968 10.18573069 16.66015625 18.15625 C16.88218324 21.50683914 16.83899571 24.80466596 16.66015625 28.15625 C15.67015625 28.15625 14.68015625 28.15625 13.66015625 28.15625 C12.23046875 26.546875 12.23046875 26.546875 10.78515625 24.40625 C6.63181025 18.62013899 2.44235268 15.53001875 -4.33984375 13.15625 C-6.67377225 12.85672918 -8.97338803 12.66113625 -11.32421875 12.5625 C-13.89085939 12.04519259 -14.80691507 11.25855219 -16.33984375 9.15625 C-16.27511248 5.531299 -16.09101885 3.12651784 -13.83984375 0.21875 C-9.17852157 -1.76231193 -4.76384063 -1.7178457 0 0 Z " fill="#082130" transform="translate(568.33984375,371.84375)"/>
<path d="M0 0 C2.31 0 4.62 0 7 0 C7 14.19 7 28.38 7 43 C4.69 43 2.38 43 0 43 C0 28.81 0 14.62 0 0 Z " fill="#37785C" transform="translate(642,818)"/>
<path d="M0 0 C0.33 0 0.66 0 1 0 C1.01458252 0.7027002 1.02916504 1.40540039 1.04418945 2.12939453 C1.58955515 25.83642207 2.47678089 49.05789625 12.8125 70.81640625 C13.4003125 72.39228516 13.4003125 72.39228516 14 74 C13.34 74.99 12.68 75.98 12 77 C11.67 76.34 11.34 75.68 11 75 C10.34 75 9.68 75 9 75 C8.01 75.99 8.01 75.99 7 77 C0.76385406 61.60005183 -1.17689146 47.9811138 -1.13037109 31.45385742 C-1.12503648 29.20289293 -1.13032887 26.95213012 -1.13671875 24.70117188 C-1.14013763 16.41757123 -0.87485952 8.2473944 0 0 Z " fill="#0A202F" transform="translate(518,538)"/>
<path d="M0 0 C0.33 0 0.66 0 1 0 C2.38372967 83.03797252 2.38372967 83.03797252 -15 116 C-16.3042631 112.08721069 -15.34483626 110.87378179 -13.75 107.125 C-4.78379399 84.58564236 -4.36126535 59.47310749 -2.99804688 35.52850342 C-2.67091498 29.80320838 -2.33103009 24.07867786 -1.9867897 18.35438919 C-1.8693254 16.37201742 -1.75771314 14.38930168 -1.64620972 12.40658569 C-1.57588531 11.21328644 -1.50556091 10.01998718 -1.43310547 8.79052734 C-1.37331512 7.74134125 -1.31352478 6.69215515 -1.25192261 5.61117554 C-1 3 -1 3 0 0 Z " fill="#111B2A" transform="translate(432,452)"/>
<path d="M0 0 C0.33 0 0.66 0 1 0 C1.82779486 29.70863776 -2.08503853 61.30966441 -16 88 C-16.33 87.34 -16.66 86.68 -17 86 C-19.475 86.99 -19.475 86.99 -22 88 C-22 84.11364233 -20.2730842 81.83576754 -18.3125 78.625 C-4.42333768 54.93800918 -1.55356312 26.9462844 0 0 Z " fill="#0D1C2C" transform="translate(449,484)"/>
<path d="M0 0 C16.5 0 33 0 50 0 C50 5.28 50 10.56 50 16 C49.67 16 49.34 16 49 16 C49 11.38 49 6.76 49 2 C33.49 2.33 17.98 2.66 2 3 C2 28.74 2 54.48 2 81 C3.65 81 5.3 81 7 81 C7 81.33 7 81.66 7 82 C5.02 82 3.04 82 1 82 C0.67 54.94 0.34 27.88 0 0 Z " fill="#BF7A2A" transform="translate(837,691)"/>
<path d="M0 0 C2.68655284 3.26224274 4.2692173 6.65766241 6 10.5 C10.69429154 20.35606439 17.72139558 28.19576287 27 34 C26.34 34.99 25.68 35.98 25 37 C24.36707617 39.11280345 24.36707617 39.11280345 24 41 C12.65151945 30.44738692 4.82492677 17.7428318 0 3 C0 2.01 0 1.02 0 0 Z " fill="#091D2D" transform="translate(577,549)"/>
<path d="M0 0 C0.33 0 0.66 0 1 0 C1.21152362 26.34282667 0.60286066 52.66555391 0 79 C-0.33 79 -0.66 79 -1 79 C-1.33 69.1 -1.66 59.2 -2 49 C-2.99 51.64 -3.98 54.28 -5 57 C-6.08560427 52.65758293 -5.71467972 51.01449969 -4.6875 46.75 C-2.29484918 35.97760239 -1.77242807 24.98199609 -1 14 C-0.88601881 12.44917438 -0.77150014 10.89838809 -0.65625 9.34765625 C-0.42852696 6.2322786 -0.20851236 3.11671109 0 0 Z " fill="#28292A" transform="translate(481,509)"/>
<path d="M0 0 C2.95360757 0.63433183 5.39025724 1.59951825 8.0625 3 C10.39883016 4.21973475 12.4830547 5.16101823 15 6 C15.33 4.68 15.66 3.36 16 2 C16.495 10.415 16.495 10.415 17 19 C7.75178673 15.30071469 3.88988773 8.9090977 0 0 Z " fill="#1F6253" transform="translate(344,433)"/>
<path d="M0 0 C0.66 0.66 1.32 1.32 2 2 C-2.09976064 7.83905304 -6.53371528 13.37089402 -12 18 C-12.66 18 -13.32 18 -14 18 C-13.88529863 16.24929483 -13.75780972 14.49942464 -13.625 12.75 C-13.55539062 11.77546875 -13.48578125 10.8009375 -13.4140625 9.796875 C-12.99670763 6.97776099 -12.70822753 5.2776367 -11 3 C-8.3984375 1.953125 -8.3984375 1.953125 -5.375 1.25 C-4.37210938 1.00765625 -3.36921875 0.7653125 -2.3359375 0.515625 C-1.56507813 0.34546875 -0.79421875 0.1753125 0 0 Z " fill="#1E6152" transform="translate(676,436)"/>
<path d="M0 0 C0.33 0 0.66 0 1 0 C1.04985767 5.08624889 1.08593386 10.17235197 1.10986328 15.25878906 C1.11985099 16.98505129 1.13344583 18.71129691 1.15087891 20.4375 C1.2404404 29.54116273 1.31487595 38.12327097 -1 47 C-1.33 47 -1.66 47 -2 47 C-2.02517326 42.98389666 -2.04307755 38.96782537 -2.05493164 34.95166016 C-2.06229008 32.93260071 -2.07501162 30.91356303 -2.08789062 28.89453125 C-2.1432228 6.4296684 -2.1432228 6.4296684 0 0 Z " fill="#29292B" transform="translate(432,452)"/>
<path d="M0 0 C2.32782442 2.32782442 2.37219156 3.2042284 2.875 6.375 C4.70695593 16.18301022 8.18059805 24.84652715 12.92578125 33.6015625 C13.28027344 34.39304687 13.63476562 35.18453125 14 36 C13.67 36.66 13.34 37.32 13 38 C11.35 36.35 9.7 34.7 8 33 C8.33 35.31 8.66 37.62 9 40 C6.79365847 36.6904877 5.97526073 33.61461116 5.0625 29.8125 C4.89137695 29.11213623 4.72025391 28.41177246 4.54394531 27.69018555 C-0.28729568 7.51278195 -0.28729568 7.51278195 0 0 Z " fill="#141E29" transform="translate(566,561)"/>
<path d="M0 0 C0.33 0 0.66 0 1 0 C1.01981934 0.71841064 1.03963867 1.43682129 1.06005859 2.17700195 C1.15760347 5.5557733 1.26454278 8.93412558 1.375 12.3125 C1.41463867 13.53388672 1.45427734 14.75527344 1.49511719 16.01367188 C1.79737618 24.18967039 2.38663117 32.25555223 3.60302734 40.34887695 C3.890625 42.5 3.890625 42.5 4 46 C3.01 46.99 2.02 47.98 1 49 C1 45.37 1 41.74 1 38 C0.67 40.64 0.34 43.28 0 46 C-0.33 46 -0.66 46 -1 46 C-1.02502961 41.37760802 -1.04301321 36.75525692 -1.05493164 32.1328125 C-1.059909 30.5657482 -1.06669329 28.99868842 -1.07543945 27.43164062 C-1.12544049 18.23144947 -0.99146255 9.16124808 0 0 Z " fill="#161E26" transform="translate(518,538)"/>
<path d="M0 0 C0.33 0.66 0.66 1.32 1 2 C1.66 2 2.32 2 3 2 C4.2890625 3.4609375 4.2890625 3.4609375 5.625 5.375 C6.29402344 6.31472656 6.29402344 6.31472656 6.9765625 7.2734375 C8 9 8 9 8 11 C8.99 11.33 9.98 11.66 11 12 C10.34 15.3 9.68 18.6 9 22 C4.72125049 18.26762481 3.09998877 15.35057375 1.6875 9.875 C1.36136719 8.65554688 1.03523437 7.43609375 0.69921875 6.1796875 C0 3 0 3 0 0 Z " fill="#1E6052" transform="translate(523,275)"/>
<path d="M0 0 C0.33 0 0.66 0 1 0 C1.52215407 18.73952938 -0.54221137 36.60136856 -4 55 C-5.52978516 53.72143555 -5.52978516 53.72143555 -7 52 C-6.61732779 49.15505166 -6.07821092 46.58201787 -5.375 43.8125 C-3.16273972 34.17941323 -2.1100893 24.57564159 -1.25 14.75 C-1.1856073 14.01979645 -1.1212146 13.2895929 -1.05487061 12.53726196 C-0.68895521 8.35930697 -0.33810194 4.18031108 0 0 Z " fill="#282526" transform="translate(449,484)"/>
<path d="M0 0 C0.33 0 0.66 0 1 0 C3.29612756 19.96810934 3.29612756 19.96810934 3 29 C2.67 29 2.34 29 2 29 C1.67 43.85 1.34 58.7 1 74 C0.67 74 0.34 74 0 74 C0 49.58 0 25.16 0 0 Z " fill="#01122A" transform="translate(538,521)"/>
<path d="M0 0 C2.18645904 3.27968856 3.04045067 6.10891994 4.1875 9.875 C6.29287635 16.5593046 9.10616552 22.32485518 12.64453125 28.390625 C14 31 14 31 14 34 C8.91024773 31.7047933 7.3125484 28.32712211 5.3125 23.375 C5.01142334 22.65586426 4.71034668 21.93672852 4.40014648 21.19580078 C1.54588096 14.21100416 -0.39273544 7.65834099 0 0 Z " fill="#141E29" transform="translate(594,543)"/>
<path d="M0 0 C4.70689655 2.4137931 4.70689655 2.4137931 5.84375 4.6875 C6.08264161 8.22309579 4.60490409 10.60223656 3.0625 13.75 C2.49660156 14.92046875 1.93070313 16.0909375 1.34765625 17.296875 C0.90292969 18.18890625 0.45820312 19.0809375 0 20 C-0.33 20 -0.66 20 -1 20 C-1.02712351 17.60408962 -1.0468982 15.20849043 -1.0625 12.8125 C-1.07087891 12.13896484 -1.07925781 11.46542969 -1.08789062 10.77148438 C-1.10606538 7.04565869 -0.89299392 3.6211958 0 0 Z " fill="#206354" transform="translate(551,289)"/>
<path d="M0 0 C5.14038877 6.79265659 5.14038877 6.79265659 4.6875 10.6875 C4 13 4 13 3 14 C2.92686433 16.53049402 2.90752473 19.03304837 2.9375 21.5625 C2.94201172 22.27341797 2.94652344 22.98433594 2.95117188 23.71679688 C2.96299136 25.47790013 2.98092737 27.23896036 3 29 C-0.93037303 23.10444045 -0.13538125 15.38447457 -0.0625 8.5 C-0.05798828 7.67757813 -0.05347656 6.85515625 -0.04882812 6.0078125 C-0.03718489 4.00517604 -0.01925556 2.00257773 0 0 Z " fill="#CD8330" transform="translate(527,324)"/>
<path d="M0 0 C2.73056695 3.33277658 4.46841326 6.86681964 6.3125 10.75 C9.00436509 16.30735223 12.00091027 21.28312494 16 26 C14.68 26.33 13.36 26.66 12 27 C7.96275004 21.71721548 5.07673384 16.27213303 2.625 10.125 C2.36251465 9.47072021 2.1000293 8.81644043 1.82958984 8.14233398 C0.72235417 5.27621992 0 3.09967132 0 0 Z " fill="#151E28" transform="translate(577,549)"/>
<path d="M0 0 C5.75 1.875 5.75 1.875 8 3 C8 3.66 8 4.32 8 5 C4.45835085 5.0292067 0.91673303 5.04686814 -2.625 5.0625 C-4.12353516 5.07506836 -4.12353516 5.07506836 -5.65234375 5.08789062 C-10.55020275 5.1041087 -15.18656199 5.04318537 -20 4 C-20 3.67 -20 3.34 -20 3 C-9.605 2.505 -9.605 2.505 1 2 C0.67 1.34 0.34 0.68 0 0 Z " fill="#B2752E" transform="translate(550,643)"/>
<path d="M0 0 C4.91935902 4.11619836 9.52647956 8.40410362 14 13 C13.01 13.66 12.02 14.32 11 15 C9.72486237 13.92173635 8.45507431 12.83714481 7.1875 11.75 C6.47980469 11.14671875 5.77210938 10.5434375 5.04296875 9.921875 C3.03996529 8.03759641 1.4397345 6.34354259 0 4 C0 2.68 0 1.36 0 0 Z " fill="#081A2B" transform="translate(605,573)"/>
<path d="M0 0 C0.33 0 0.66 0 1 0 C1.33656474 5.72160063 0.29103225 9.89137271 -1.8125 15.1875 C-2.07353516 15.88552734 -2.33457031 16.58355469 -2.60351562 17.30273438 C-4.00175478 20.93125129 -5.45535056 24.0427047 -8 27 C-7.37512845 23.4420579 -6.42202291 20.24323778 -5.125 16.875 C-3.05888907 11.33269512 -1.46241623 5.72779691 0 0 Z " fill="#272426" transform="translate(424,541)"/>
<path d="M0 0 C3.39666026 3.15680498 5.98793677 6.67071708 8.5625 10.5 C10.97520797 14.05260172 13.38502515 17.59134269 16 21 C13.64828869 20.40138258 11.3140622 19.73075648 9 19 C8.67 18.34 8.34 17.68 8 17 C8.66 17 9.32 17 10 17 C9.278125 15.94039062 8.55625 14.88078125 7.8125 13.7890625 C6.87475838 12.4012049 5.93727152 11.01317512 5 9.625 C4.52304687 8.92632813 4.04609375 8.22765625 3.5546875 7.5078125 C2.87792969 6.50234375 2.87792969 6.50234375 2.1875 5.4765625 C1.76855469 4.85861816 1.34960938 4.24067383 0.91796875 3.60400391 C0 2 0 2 0 0 Z " fill="#BD7C30" transform="translate(580,617)"/>
<path d="M0 0 C0.33 0 0.66 0 1 0 C1.144375 1.0725 1.28875 2.145 1.4375 3.25 C1.85205068 6.7012993 1.85205068 6.7012993 2.5625 8.75 C3.21445563 12.10291467 2.84024368 15.37238151 2.5625 18.75 C2.48418945 19.79607422 2.48418945 19.79607422 2.40429688 20.86328125 C2.27525928 22.57596203 2.13840386 24.28805066 2 26 C1.67 26 1.34 26 1 26 C0.67 24.35 0.34 22.7 0 21 C-0.33 21 -0.66 21 -1 21 C-0.67 14.07 -0.34 7.14 0 0 Z " fill="#202629" transform="translate(429,489)"/>
<path d="M0 0 C0.33 0 0.66 0 1 0 C3.29612756 19.96810934 3.29612756 19.96810934 3 29 C2.67 29 2.34 29 2 29 C0.27490076 22.32373009 -0.25620222 16.31552429 -0.125 9.4375 C-0.11597656 8.52419922 -0.10695313 7.61089844 -0.09765625 6.66992188 C-0.07437253 4.44632681 -0.0416771 2.22331323 0 0 Z " fill="#141A26" transform="translate(538,521)"/>
<path d="M0 0 C-1.32 2.31 -2.64 4.62 -4 7 C-4.33 6.34 -4.66 5.68 -5 5 C-4.67 4.34 -4.34 3.68 -4 3 C-6.64 3.66 -9.28 4.32 -12 5 C-5.5 -1.96428571 -5.5 -1.96428571 0 0 Z " fill="#C7802F" transform="translate(568,337)"/>
<path d="M0 0 C0.99 0 1.98 0 3 0 C3.18395704 4.04705482 2.93489201 6.47166751 1 10 C0.62331656 11.65740715 0.27942455 13.32345271 0 15 C-0.33 15 -0.66 15 -1 15 C-1.02693575 12.87506859 -1.04636628 10.75004088 -1.0625 8.625 C-1.07410156 7.44164062 -1.08570313 6.25828125 -1.09765625 5.0390625 C-1 2 -1 2 0 0 Z " fill="#B7742A" transform="translate(425,512)"/>
<path d="M0 0 C1.25955231 3.77865693 0.48087189 5.03411786 -0.9375 8.6875 C-1.31777344 9.68136719 -1.69804687 10.67523437 -2.08984375 11.69921875 C-2.39019531 12.45847656 -2.69054687 13.21773437 -3 14 C-4.90389849 11.14415227 -5.69462177 9.0688238 -6.625 5.8125 C-7.01558594 4.46091797 -7.01558594 4.46091797 -7.4140625 3.08203125 C-7.60742188 2.39496094 -7.80078125 1.70789063 -8 1 C-7.34 1 -6.68 1 -6 1 C-5.01 3.31 -4.02 5.62 -3 8 C-2.01 5.36 -1.02 2.72 0 0 Z " fill="#121A27" transform="translate(379,739)"/>
<path d="M0 0 C2.06029417 3.09044125 2.8223577 5.42945227 3.75 9 C4.03359375 10.051875 4.3171875 11.10375 4.609375 12.1875 C5 15 5 15 3 18 C2.49095343 16.12743583 1.99317545 14.25180659 1.5 12.375 C1.08234375 10.80878906 1.08234375 10.80878906 0.65625 9.2109375 C0.00881404 6.04312582 -0.1161292 3.22258533 0 0 Z " fill="#202227" transform="translate(594,543)"/>
<path d="M0 0 C0.33 0 0.66 0 1 0 C1.24900646 1.93505023 1.47356242 3.87325934 1.6875 5.8125 C1.87892578 7.43091797 1.87892578 7.43091797 2.07421875 9.08203125 C2 12 2 12 0.51953125 13.88671875 C0.01808594 14.25410156 -0.48335937 14.62148438 -1 15 C-1.02685412 12.68756208 -1.04632841 10.3750373 -1.0625 8.0625 C-1.07410156 6.77472656 -1.08570313 5.48695313 -1.09765625 4.16015625 C-1 1 -1 1 0 0 Z " fill="#15252F" transform="translate(520,572)"/>
<path d="M0 0 C5.07648175 2.78387709 9.4833069 6.40829416 14 10 C13.67 10.66 13.34 11.32 13 12 C11.39320484 10.89966185 9.78966207 9.79457336 8.1875 8.6875 C7.29417969 8.07261719 6.40085937 7.45773437 5.48046875 6.82421875 C3.42772093 5.31456012 1.63893046 3.94384775 0 2 C0 1.34 0 0.68 0 0 Z " fill="#C58132" transform="translate(472,340)"/>
<path d="M0 0 C4.10958767 1.45044271 7.43258745 3.51110752 11 6 C10.01 6.495 10.01 6.495 9 7 C6.5249829 5.88568235 4.32116581 4.41849022 2 3 C2 4.98 2 6.96 2 9 C0.14223235 5.86501708 -0.20140476 3.62528568 0 0 Z " fill="#CA8430" transform="translate(454,327)"/>
<path d="M0 0 C0.33 0.66 0.66 1.32 1 2 C0.0625 4.625 0.0625 4.625 -1 7 C3.455 6.505 3.455 6.505 8 6 C5.14521674 7.90318884 3.58058692 8.4619099 0.3125 9.125 C-0.49574219 9.29257812 -1.30398438 9.46015625 -2.13671875 9.6328125 C-2.75160156 9.75398438 -3.36648438 9.87515625 -4 10 C-3.52449439 8.51965236 -3.04448784 7.04074979 -2.5625 5.5625 C-2.29566406 4.73878906 -2.02882813 3.91507812 -1.75390625 3.06640625 C-1 1 -1 1 0 0 Z " fill="#3E7B61" transform="translate(319,298)"/>
<path d="M0 0 C0 3.96 0 7.92 0 12 C-0.33 12 -0.66 12 -1 12 C-1 9.03 -1 6.06 -1 3 C-1.94875 3.515625 -2.8975 4.03125 -3.875 4.5625 C-4.90625 5.036875 -5.9375 5.51125 -7 6 C-7.66 5.67 -8.32 5.34 -9 5 C-7.87926138 4.16094435 -6.75325453 3.32892169 -5.625 2.5 C-4.99851562 2.0359375 -4.37203125 1.571875 -3.7265625 1.09375 C-2 0 -2 0 0 0 Z " fill="#CB812F" transform="translate(607,520)"/>
<path d="M0 0 C0.95465783 2.16967689 1.14401212 3.56328793 0.3984375 5.82421875 C-0.35870385 7.5684743 -1.17609198 9.28627131 -2 11 C-2.99 10.67 -3.98 10.34 -5 10 C-3.66511872 6.40608886 -2.03977277 3.24509304 0 0 Z " fill="#032335" transform="translate(436,557)"/>
<path d="M0 0 C3 3 6 6 9 9 C5.40608886 7.66511872 2.24509304 6.03977277 -1 4 C-0.67 2.68 -0.34 1.36 0 0 Z " fill="#BD7E32" transform="translate(630,590)"/>
<path d="M0 0 C1.65 0.33 3.3 0.66 5 1 C2.3401439 4.44216672 -0.90288286 4.99504674 -5 6 C-3.35 4.02 -1.7 2.04 0 0 Z " fill="#C78032" transform="translate(390,594)"/>
<path d="M0 0 C-4.62197306 2.21854707 -7.76824163 3.38281159 -13 3 C-11.68 2.67 -10.36 2.34 -9 2 C-9 1.34 -9 0.68 -9 0 C-2.25 -1.125 -2.25 -1.125 0 0 Z " fill="#D28631" transform="translate(185,771)"/>
<path d="M0 0 C2 1 2 1 3 2 C3 2.99 3 3.98 3 5 C2.34 5 1.68 5 1 5 C0.67 5.66 0.34 6.32 0 7 C-3 3.25 -3 3.25 -3 1 C-2.01 0.67 -1.02 0.34 0 0 Z " fill="#121F28" transform="translate(318,741)"/>
<path d="M0 0 C0.99 0.33 1.98 0.66 3 1 C3.6875 3.0625 3.6875 3.0625 4 5 C3.34 5 2.68 5 2 5 C1.67 5.99 1.34 6.98 1 8 C0.67 8 0.34 8 0 8 C-1.125 2.25 -1.125 2.25 0 0 Z " fill="#14222F" transform="translate(571,584)"/>
<path d="M0 0 C0.99 1.485 0.99 1.485 2 3 C2.66 3 3.32 3 4 3 C3.67 5.31 3.34 7.62 3 10 C2.34 10 1.68 10 1 10 C-0.60725635 6.78548731 -0.05748185 3.56387464 0 0 Z " fill="#1B252A" transform="translate(440,391)"/>
<path d="M0 0 C0.33 1.32 0.66 2.64 1 4 C2.98 3.67 4.96 3.34 7 3 C4.01353231 4.99097846 1.40312738 5.94124926 -2 7 C-1.34 4.69 -0.68 2.38 0 0 Z " fill="#141D27" transform="translate(564,343)"/>
<path d="M0 0 C-0.33 1.98 -0.66 3.96 -1 6 C-1.66 5.34 -2.32 4.68 -3 4 C-3.99 4.99 -4.98 5.98 -6 7 C-6.66 6.67 -7.32 6.34 -8 6 C-7.0479279 4.99403703 -6.08812654 3.99538437 -5.125 3 C-4.59132813 2.443125 -4.05765625 1.88625 -3.5078125 1.3125 C-2 0 -2 0 0 0 Z " fill="#0F1926" transform="translate(430,611)"/>
<path d="M0 0 C-1.39332574 3.36720387 -2.9789286 4.9859524 -6 7 C-6.66 6.67 -7.32 6.34 -8 6 C-7.0479279 4.99403703 -6.08812654 3.99538437 -5.125 3 C-4.59132813 2.443125 -4.05765625 1.88625 -3.5078125 1.3125 C-2 0 -2 0 0 0 Z " fill="#CD812F" transform="translate(552,346)"/>
<path d="M0 0 C2.08954032 4.17908064 2.16552619 4.80410573 1 9 C0.01 9 -0.98 9 -2 9 C-1.34 6.03 -0.68 3.06 0 0 Z " fill="#B3732B" transform="translate(442,546)"/>
<path d="M0 0 C2.97 0.33 5.94 0.66 9 1 C9 1.66 9 2.32 9 3 C2.84765625 2.4140625 2.84765625 2.4140625 1 2 C0.67 1.34 0.34 0.68 0 0 Z " fill="#B6762D" transform="translate(498,476)"/>
<path d="M0 0 C0.33 0.66 0.66 1.32 1 2 C0.67 2.99 0.34 3.98 0 5 C-3.0625 6.1875 -3.0625 6.1875 -6 7 C-4.02 4.69 -2.04 2.38 0 0 Z " fill="#BD7D32" transform="translate(318,640)"/>
<path d="M0 0 C0.66 0 1.32 0 2 0 C1.67 2.97 1.34 5.94 1 9 C-1 6 -1 6 -0.625 2.8125 C-0.41875 1.884375 -0.2125 0.95625 0 0 Z " fill="#131B29" transform="translate(425,535)"/>
</svg>
